<svg id="Layer_1" data-name="Layer 1" xmlns="http://www.w3.org/2000/svg" viewBox="0 0 2000 2000"><defs><style>.cls-1{fill:#fff;}</style></defs><title>tile</title><rect x="166.5" y="163" width="279" height="279"/><rect class="cls-1" x="444.5" y="163" width="279" height="279"/><rect x="722.5" y="163" width="279" height="279"/><rect class="cls-1" x="1000.5" y="163" width="279" height="279"/><rect x="1278.5" y="163" width="279" height="279"/><rect class="cls-1" x="1556.5" y="163" width="279" height="279"/><rect class="cls-1" x="165.5" y="442" width="279" height="279"/><rect x="443.5" y="442" width="279" height="279"/><rect class="cls-1" x="721.5" y="442" width="279" height="279"/><rect x="999.5" y="442" width="279" height="279"/><rect class="cls-1" x="1277.5" y="442" width="279" height="279"/><rect x="1555.5" y="442" width="279" height="279"/><rect x="165.5" y="721" width="279" height="279"/><rect class="cls-1" x="443.5" y="721" width="279" height="279"/><rect x="721.5" y="721" width="279" height="279"/><rect class="cls-1" x="999.5" y="721" width="279" height="279"/><rect x="1277.5" y="721" width="279" height="279"/><rect class="cls-1" x="1555.5" y="721" width="279" height="279"/><rect class="cls-1" x="164.5" y="1000" width="279" height="279"/><rect x="442.5" y="1000" width="279" height="279"/><rect class="cls-1" x="720.5" y="1000" width="279" height="279"/><rect x="998.5" y="1000" width="279" height="279"/><rect class="cls-1" x="1276.5" y="1000" width="279" height="279"/><rect x="1554.5" y="1000" width="279" height="279"/><rect x="164.5" y="1279" width="279" height="279"/><rect class="cls-1" x="442.5" y="1279" width="279" height="279"/><rect x="720.5" y="1279" width="279" height="279"/><rect class="cls-1" x="998.5" y="1279" width="279" height="279"/><rect x="1276.5" y="1279" width="279" height="279"/><rect class="cls-1" x="1554.5" y="1279" width="279" height="279"/><rect class="cls-1" x="164.5" y="1558" width="279" height="279"/><rect x="442.5" y="1558" width="279" height="279"/><rect class="cls-1" x="720.5" y="1558" width="279" height="279"/><rect x="998.5" y="1558" width="279" height="279"/><rect class="cls-1" x="1276.5" y="1558" width="279" height="279"/><rect x="1554.5" y="1558" width="279" height="279"/></svg>