<svg id="Layer_1" data-name="Layer 1" xmlns="http://www.w3.org/2000/svg" viewBox="0 0 598 493"><defs><style>.cls-1{fill:#878787;}.cls-2{fill:#595959;}</style></defs><title>pistol</title><path class="cls-1" d="M482.21,166.23H464.77V151.11h-9.31V132.5H438v18.61H164.64V132.5H147.19v18.61H134.4v23.27H115.79a17.45,17.45,0,0,0,17.44,17.45h1.17V360.5H235.6V252.32H464.77V183.68h17.44Z"/><path d="M455.46,132.5v18.61h9.31v15.12h17.44v17.45H464.77v68.64H235.6V360.5H134.4V191.83h-1.17a17.45,17.45,0,0,1-17.44-17.45H134.4V151.11h12.79V132.5h17.45v18.61H438V132.5h17.45m15-15H423v18.61H179.64V117.5H132.19v18.61H119.4v23.27H100.79v15a32.51,32.51,0,0,0,18.61,29.35V375.5H250.6V267.32H479.77V198.68h17.44V151.23H479.77V136.11h-9.31V117.5Z"/><rect class="cls-2" x="157.66" y="217.42" width="57" height="124.47"/></svg>