<svg id="Layer_1" data-name="Layer 1" xmlns="http://www.w3.org/2000/svg" viewBox="0 0 1905 493"><defs><style>.cls-1{fill:#878787;}.cls-2{fill:#4c351d;}</style></defs><title>shotgun</title><path class="cls-1" d="M1374.22,180h74a15,15,0,0,1,15,15v0a15,15,0,0,1-15,15h-74a0,0,0,0,1,0,0V180A0,0,0,0,1,1374.22,180Z"/><path d="M1448.22,217.48h-81.5v-45h81.5a22.5,22.5,0,0,1,0,45Zm-66.5-15h66.5a7.5,7.5,0,0,0,0-15h-66.5Z"/><path class="cls-2" d="M940.22,138h-216s-67.07-2.4-153.41,39.9a85.52,85.52,0,0,1-60.06,5.7c-29.71-8.05-88.74-18-203.38-21.18a45.78,45.78,0,0,0-25.53,6.85c-8.95,5.6-22.17,12.21-33.27,11.09-1.91-.19-3.82-.36-5.74-.36H218.75a12,12,0,0,0-12,12.49c1.39,31.49,4.75,114.16,3.31,150.15a12,12,0,0,0,15,12c30.1-7.92,101.39-27.42,220.93-64.3a92.46,92.46,0,0,1,60.29,2c5,1.93,9.93,3.83,14,5.43,14,5.54,29.88-2.79,32.71-17.56q.12-.6.21-1.23c3-20,41-33,41-33s60-23,149-23,197-1,197-1Z"/><path d="M222,362.55a19.47,19.47,0,0,1-19.37-20.22c1.41-35.47-1.85-116.39-3.31-149.53a19.46,19.46,0,0,1,19.45-20.32h24.08c2.32,0,4.57.21,6.49.4,7,.7,17.12-2.85,28.55-10a53.08,53.08,0,0,1,29.71-8c116.2,3.26,175.69,13.46,205.13,21.44a78.05,78.05,0,0,0,54.8-5.19c85.88-42.08,152.4-40.81,156.83-40.67H947.72v98.93l-7.43.07c-1.08,0-109,1-197.07,1-86.4,0-145.73,22.28-146.32,22.5l-.25.1c-13,4.47-34.33,15.77-36,27-.08.52-.17,1-.26,1.51A31.07,31.07,0,0,1,544.73,303a31.9,31.9,0,0,1-27.19,1.71c-3.64-1.44-8.32-3.25-13.91-5.4a85.36,85.36,0,0,0-55.39-1.83C329.86,334,258.82,353.52,227,361.9A19.6,19.6,0,0,1,222,362.55Zm-3.23-175.07a4.48,4.48,0,0,0-4.47,4.66c1.48,33.33,4.75,114.75,3.32,150.78a4.34,4.34,0,0,0,1.65,3.63,4.39,4.39,0,0,0,3.94.84c31.7-8.34,102.51-27.78,220.63-64.21A100.31,100.31,0,0,1,509,285.34c5.64,2.16,10.37,4,14.06,5.45a16.92,16.92,0,0,0,14.45-.91,16.13,16.13,0,0,0,8.14-11.08c.05-.3.11-.61.15-.93,3.54-23.61,41-37.25,45.87-38.94,4-1.51,63.37-23.45,151.55-23.45,74.6,0,163.56-.71,189.5-.94V145.48H724c-.65,0-66.42-1.72-149.84,39.15a93,93,0,0,1-65.32,6.2c-28.66-7.77-86.9-17.7-201.63-20.92a38,38,0,0,0-21.34,5.71c-14.65,9.15-27.43,13.26-38,12.19-1.64-.16-3.38-.32-5-.32Z"/><rect class="cls-1" x="940.22" y="175.98" width="434" height="38"/><path d="M1381.72,221.48h-449v-53h449Zm-434-15h419v-23h-419Z"/><path class="cls-2" d="M1042.72,174.48h335a0,0,0,0,1,0,0v35.65a18.35,18.35,0,0,1-18.35,18.35H1061.07a18.35,18.35,0,0,1-18.35-18.35V174.48A0,0,0,0,1,1042.72,174.48Z"/><path d="M1359.37,236h-298.3a25.88,25.88,0,0,1-25.85-25.85V167h350v43.15A25.88,25.88,0,0,1,1359.37,236Zm-309.15-54v28.15A10.87,10.87,0,0,0,1061.07,221h298.3a10.87,10.87,0,0,0,10.85-10.85V182Z"/><rect class="cls-1" x="811.22" y="153.98" width="92" height="23" rx="11.5"/><rect class="cls-1" x="940.22" y="137.98" width="758" height="38"/><path d="M1705.72,183.48h-773v-53h773Zm-758-15h743v-23h-743Z"/></svg>