<svg id="Layer_1" data-name="Layer 1" xmlns="http://www.w3.org/2000/svg" viewBox="0 0 2000 2000"><defs><style>.cls-1{fill:#228cf4;}.cls-2{fill:#e5b288;}</style></defs><title>protagonist</title><circle class="cls-1" cx="1000" cy="1207" r="449.5"/><path d="M1000,1669a460.57,460.57,0,1,1,179.83-36.31A459.17,459.17,0,0,1,1000,1669Zm0-899c-241,0-437,196-437,437s196,437,437,437,437-196,437-437S1241,770,1000,770Z"/><circle class="cls-2" cx="1000" cy="750.25" r="249.75"/><path d="M1000,1012.5a262.25,262.25,0,1,1,185.44-76.81A260.54,260.54,0,0,1,1000,1012.5Zm0-499.5c-130.82,0-237.25,106.43-237.25,237.25S869.18,987.5,1000,987.5s237.25-106.43,237.25-237.25S1130.82,513,1000,513Z"/><polygon points="752.26 782.09 1247.74 782.09 1233.81 838.23 1204.92 893.05 1171.83 931.49 1129.37 963.93 1079.39 987.12 1013.92 999.61 962.79 997.24 909.07 982.93 868.1 962.37 836.59 939.13 800.3 900.26 777.86 864.49 752.26 782.09"/><circle cx="927" cy="692" r="31"/><circle cx="1073" cy="692" r="31"/><rect class="cls-2" x="951.5" y="822" width="97" height="51"/></svg>