<svg id="Layer_1" data-name="Layer 1" xmlns="http://www.w3.org/2000/svg" viewBox="0 0 2000 2000"><defs><style>.cls-1{fill:#4c351d;}.cls-2{fill:#809074;}</style></defs><title>zombie</title><rect class="cls-1" x="828.5" y="627.5" width="343" height="1030" rx="171.5"/><path class="cls-2" d="M835.5,1113l70.43,38.61a17.44,17.44,0,0,1-.09,30.63l-70.34,38"/><path class="cls-2" d="M1168.47,1273.35S1026,1301,1161,1378c0,0-77,50-2,92"/><path d="M1000,1670c-101.46,0-184-82.54-184-184V799c0-101.46,82.54-184,184-184s184,82.54,184,184v687C1184,1587.46,1101.46,1670,1000,1670Zm0-1030c-87.67,0-159,71.33-159,159v687c0,87.67,71.33,159,159,159s159-71.33,159-159V799C1159,711.33,1087.67,640,1000,640Z"/><circle class="cls-2" cx="1000" cy="750.25" r="249.75"/><path d="M1000,1012.5a262.25,262.25,0,1,1,185.44-76.81A260.54,260.54,0,0,1,1000,1012.5Zm0-499.5c-130.82,0-237.25,106.43-237.25,237.25S869.18,987.5,1000,987.5s237.25-106.43,237.25-237.25S1130.82,513,1000,513Z"/><circle cx="927" cy="691" r="31"/><circle cx="1073" cy="691" r="31"/></svg>